# xmcd CD database file
#
# Track frame offsets:
#	150
#	19615
#	39052
#	58510
#
# Disc length: 1037 seconds
#
# Revision: 0
# Processed by: cddbd v1.5.1PL0 Copyright (c) Steve Scherf et al.
# Submitted via: CDex 1.51
#
DISCID=21040b04
DTITLE=田原俊彦 and 研ナオコ - 恋すれどシャナナ
DYEAR=2004
DGENRE=JPop
TTITLE0=恋すれどシャナナ
TTITLE1=恋すれどシャナナ [without Naoko Ken]
TTITLE2=恋すれどシャナナ [without Toshihiko Tahara]
TTITLE3=恋すれどシャナナ [instrumental]
EXTD=YEAR: 2004
EXTT0=
EXTT1=
EXTT2=
EXTT3=
PLAYORDER=
